<svg xmlns="http://www.w3.org/2000/svg" version="1.1" xmlns:xlink="http://www.w3.org/1999/xlink" xmlns:svgjs="http://svgjs.com/svgjs" width="256.000000pt" height="258.000000pt"><svg version="1.0" xmlns="http://www.w3.org/2000/svg" width="256.000000pt" height="258.000000pt" viewBox="0 0 256.000000 258.000000" preserveAspectRatio="xMidYMid meet">

<g transform="translate(0.000000,258.000000) scale(0.100000,-0.100000)" fill="#000000" stroke="none">
<path d="M1654 2556 c-74 -34 -121 -103 -159 -234 -15 -50 -22 -61 -34 -56
-119 52 -263 64 -376 30 -33 -10 -61 -14 -62 -9 -18 52 -75 142 -106 167 -35
28 -45 31 -111 31 -60 0 -82 -5 -138 -33 -82 -40 -177 -138 -232 -240 -90
-165 -248 -296 -384 -318 -23 -4 -42 -10 -42 -14 0 -18 91 -129 141 -173 86
-77 233 -170 382 -243 114 -56 137 -71 137 -89 0 -17 -8 -24 -30 -29 -20 -3
-37 -16 -48 -36 -20 -36 -28 -37 -43 -7 -21 40 -81 109 -122 138 -117 85 -248
41 -233 -78 5 -39 3 -43 -29 -63 -40 -25 -44 -44 -14 -76 24 -25 28 -89 9
-138 -29 -77 1 -164 67 -191 21 -9 48 -25 60 -37 l22 -20 34 21 c34 21 49 46
61 104 7 29 27 43 50 34 12 -5 11 -16 -6 -69 -21 -67 -29 -204 -15 -270 6 -31
5 -38 -7 -38 -8 0 -21 8 -28 18 -21 30 -51 41 -97 35 -31 -4 -53 -1 -76 11
-66 36 -163 -22 -200 -119 -16 -39 -16 -51 -5 -88 15 -51 74 -110 127 -127 53
-17 55 -22 38 -63 -20 -50 -19 -100 5 -145 56 -106 149 -155 233 -123 65 25
130 112 156 209 7 23 31 66 54 95 45 54 199 167 230 167 49 0 147 -133 180
-247 41 -137 124 -167 247 -88 58 38 77 36 132 -10 40 -34 70 -40 106 -21 44
23 66 59 96 159 24 77 34 96 79 142 71 73 90 76 174 30 82 -46 180 -114 211
-148 16 -17 22 -32 17 -46 -7 -24 9 -59 42 -84 13 -10 30 -34 38 -53 37 -89
196 -78 255 18 25 42 25 101 0 157 -11 24 -20 45 -20 47 0 2 15 10 33 17 49
21 93 77 101 130 9 61 -9 129 -45 163 -25 24 -39 29 -97 32 -62 3 -73 1 -147
-37 -102 -52 -167 -53 -330 -6 -43 12 -53 19 -63 48 -8 22 -24 39 -46 50 -39
18 -74 63 -60 77 17 17 195 70 259 76 64 7 65 6 104 -29 57 -52 79 -61 146
-60 120 2 235 70 235 140 0 65 -53 111 -157 133 -108 24 -137 53 -88 92 60 47
63 123 8 188 -52 63 -122 76 -196 39 -54 -28 -58 -34 -55 -92 1 -41 -3 -52
-28 -77 l-29 -30 -32 20 c-33 20 -56 50 -67 87 -6 18 -2 22 22 28 17 3 58 30
92 60 34 30 97 72 139 93 77 40 225 92 263 92 35 0 88 32 105 63 50 97 -78
341 -248 474 -81 63 -82 65 -142 158 -75 118 -184 224 -278 269 -42 20 -85 36
-95 36 -10 0 -42 -11 -70 -24z m165 -83 c106 -52 219 -178 332 -367 77 -129
164 -235 228 -276 54 -35 86 -90 53 -90 -69 1 -229 144 -312 278 -159 256
-233 345 -325 388 -58 28 -76 29 -114 10 -26 -14 -91 -118 -91 -147 0 -38 -93
-199 -150 -262 -96 -104 -229 -161 -326 -138 l-39 9 50 1 c160 4 319 177 429
467 25 67 63 116 111 142 35 20 98 14 154 -15z m-960 -58 c39 -20 73 -63 116
-143 54 -104 153 -222 225 -270 l62 -42 -27 -12 c-52 -24 -153 49 -253 181
-33 44 -70 100 -83 126 -88 177 -230 131 -369 -120 -94 -170 -212 -271 -361
-313 -30 -8 -38 -7 -47 8 -9 16 -4 20 48 39 70 26 163 93 215 156 20 25 62 87
92 138 31 51 73 113 94 138 88 105 212 154 288 114z m741 -853 c0 -4 -21 -21
-47 -38 -134 -88 -273 -134 -406 -135 -54 0 -120 -7 -159 -18 -38 -9 -68 -16
-68 -14 0 7 144 74 230 106 135 50 280 85 443 106 4 1 7 -2 7 -7z m173 -3 c12
-6 32 -20 43 -31 20 -18 21 -22 8 -65 -17 -55 -18 -151 -3 -190 14 -37 56 -81
100 -103 39 -20 49 -41 49 -102 0 -38 0 -38 -42 -38 -67 0 -176 -27 -223 -54
-48 -28 -71 -59 -90 -120 -11 -36 -13 -38 -14 -13 -1 15 6 44 14 64 19 45 19
53 1 27 -8 -11 -19 -36 -24 -55 l-9 -34 -12 43 c-6 23 -14 42 -17 42 -9 0 8
-63 27 -102 23 -46 23 -47 1 -41 -13 3 -22 -4 -30 -23 -12 -25 -14 -26 -26 -9
-16 22 -43 14 -55 -17 l-8 -22 -12 22 c-15 27 -25 28 -49 2 -17 -18 -20 -19
-32 -5 -20 24 -33 18 -16 -7 9 -12 16 -38 17 -58 l1 -35 16 45 c20 53 30 70
42 70 12 0 30 -65 30 -107 0 -31 -1 -31 -67 -43 -38 -6 -93 -10 -123 -8 l-55
3 -3 36 c-2 20 4 56 12 80 15 43 15 44 -3 20 l-19 -24 -13 21 c-21 33 -30 26
-12 -9 9 -17 18 -52 21 -77 5 -44 4 -45 -19 -39 -13 4 -30 7 -36 7 -16 0 -18
83 -3 110 9 16 8 18 -5 14 -9 -4 -24 1 -35 11 -10 9 -27 15 -37 13 -10 -2 -25
3 -34 10 -14 12 -13 18 7 60 27 57 39 106 24 97 -5 -3 -10 -13 -10 -21 0 -10
-10 -4 -26 15 -14 17 -30 31 -36 31 -5 0 4 -17 21 -37 17 -21 31 -47 31 -58
-1 -15 -6 -10 -20 17 -34 64 -133 120 -280 157 -56 15 -65 21 -68 42 -4 39 31
85 70 93 58 11 108 72 108 132 0 17 6 24 19 24 14 0 20 -10 25 -47 8 -60 45
-140 80 -174 60 -60 183 -55 251 11 39 38 55 95 55 199 l0 69 33 6 c52 10 207
92 267 140 51 41 60 45 113 45 32 1 68 -4 80 -10z m-1429 -120 c21 -6 59 -29
84 -52 44 -41 102 -113 102 -127 0 -4 -18 -12 -40 -19 -21 -6 -69 -32 -106
-56 -37 -25 -68 -44 -69 -43 -1 2 -7 25 -14 52 -7 26 -25 78 -41 114 -17 35
-30 72 -30 82 0 18 24 43 50 53 22 8 21 8 64 -4z m1856 -74 c36 -19 70 -73 70
-113 0 -26 -10 -40 -58 -79 -64 -53 -99 -92 -108 -119 -4 -14 0 -12 15 6 l21
25 0 -32 c0 -32 48 -93 73 -93 7 0 -1 12 -16 26 -52 48 -57 101 -14 136 20 16
22 15 39 -12 13 -22 31 -33 75 -45 137 -37 188 -87 146 -144 -32 -42 -78 -63
-153 -69 l-68 -5 -50 47 c-47 44 -52 46 -108 46 -75 0 -175 -21 -255 -54 l-62
-25 7 47 c3 25 12 50 19 55 6 4 57 6 113 3 124 -7 144 3 144 68 0 23 -7 66
-16 95 l-15 53 33 29 c18 15 38 27 44 25 6 -3 9 16 6 54 -4 56 -3 59 24 74 37
19 58 20 94 1z m-1942 -112 c11 -27 25 -67 32 -91 11 -42 10 -44 -26 -84 l-37
-41 27 -14 c15 -8 46 -18 69 -22 39 -6 42 -9 39 -36 -2 -17 -11 -38 -21 -48
-16 -17 -19 -17 -62 4 -24 13 -51 25 -59 29 -25 12 -35 67 -22 129 16 77 15
123 -3 147 -21 28 -18 49 8 62 33 16 33 16 55 -35z m567 -287 c19 -8 35 -22
35 -30 0 -12 -7 -11 -47 4 -47 18 -69 40 -39 40 9 0 32 -7 51 -14z m869 -79
c-5 -32 -1 -56 14 -89 19 -43 75 -98 100 -98 14 0 14 -14 6 -87 -6 -50 -8 -52
-52 -69 -84 -32 -171 -142 -211 -266 -14 -41 -53 -78 -83 -78 -11 0 -56 18
-100 40 -85 42 -137 50 -158 25 -16 -19 -40 -19 -68 1 -28 19 -28 7 0 -23 25
-27 60 -29 111 -8 41 17 57 19 57 6 0 -5 -23 -18 -51 -31 -86 -36 -122 -16
-174 95 -40 87 -110 181 -165 220 -78 57 -78 56 -85 125 -6 61 -4 66 16 75 44
20 64 61 63 131 -1 52 2 62 13 53 18 -15 17 -97 -2 -133 -19 -36 -19 -42 -1
-26 16 13 36 65 39 100 1 21 2 21 24 -5 29 -33 29 -36 -2 -65 -30 -28 -32 -58
-7 -91 30 -40 34 -60 15 -82 -18 -19 -17 -20 9 -15 21 4 29 1 34 -14 3 -10 24
-31 46 -46 52 -35 57 -37 93 -52 17 -7 43 -19 58 -27 23 -12 31 -12 44 -1 13
10 17 10 20 1 5 -15 39 -17 48 -3 3 5 17 10 31 10 13 0 29 9 36 20 8 13 19 18
34 14 15 -4 27 2 42 20 12 16 26 24 35 20 16 -6 57 39 57 64 0 10 7 13 25 10
29 -6 30 -5 9 26 -14 22 -14 28 0 61 9 21 16 56 16 79 0 22 3 51 6 64 6 20 9
17 29 -25 12 -26 30 -54 39 -62 15 -13 15 -10 -2 20 -26 44 -35 100 -22 133
14 39 20 32 14 -17z m-879 9 c30 -14 55 -30 55 -36 0 -23 -33 -76 -67 -108
-27 -25 -34 -38 -29 -56 5 -22 1 -25 -67 -41 -39 -9 -80 -19 -91 -22 -13 -4
-8 9 22 48 46 62 84 135 102 197 7 23 15 42 16 42 2 0 28 -11 59 -24z m209
-142 c10 -25 7 -84 -4 -84 -6 0 -18 16 -27 35 -13 28 -14 37 -3 50 16 19 26
19 34 -1z m586 -8 c0 -14 -12 -39 -27 -57 l-27 -32 -7 27 c-11 41 8 86 37 86
19 0 24 -5 24 -24z m-76 -53 c6 -40 4 -43 -23 -58 -17 -8 -33 -15 -37 -15 -8
0 4 84 17 118 8 22 12 23 23 11 8 -8 16 -33 20 -56z m-429 5 c23 -78 21 -82
-25 -58 -43 22 -46 30 -29 79 16 46 36 38 54 -21z m470 -78 c-18 -51 -32 -70
-52 -70 -27 0 -7 62 30 92 17 14 33 25 35 24 1 -2 -5 -22 -13 -46z m-485 -1
c14 -5 31 -17 38 -26 6 -9 12 -12 12 -6 0 7 10 9 27 4 22 -6 29 -15 35 -46 12
-53 20 -59 12 -7 -7 45 -6 46 45 36 27 -6 31 -11 33 -43 l1 -36 4 36 c3 31 9
38 31 42 15 3 33 1 40 -5 8 -7 12 -7 12 0 0 14 54 22 62 9 5 -8 8 -6 8 4 0 15
46 36 56 26 3 -2 -1 -21 -8 -42 -14 -41 -47 -70 -55 -47 -7 19 -19 14 -32 -14
-9 -20 -17 -25 -36 -22 -14 3 -26 0 -29 -8 -7 -19 -35 -18 -43 1 -5 14 -8 14
-24 -1 -18 -16 -20 -16 -37 -1 -10 10 -28 17 -40 17 -11 0 -24 5 -27 10 -3 6
-14 10 -24 10 -10 0 -26 9 -36 20 -10 11 -23 20 -29 20 -13 0 -29 23 -50 75
l-16 37 23 -16 c12 -9 33 -21 47 -27z m-810 15 c19 -1 43 -2 52 -3 24 -2 59
-56 80 -125 l18 -61 -5 63 c-4 57 -3 62 15 62 12 0 23 -7 26 -15 8 -20 20 -19
52 3 22 15 225 73 255 72 4 0 7 -22 7 -49 0 -28 5 -53 10 -56 6 -4 -42 -41
-107 -84 -119 -78 -263 -194 -263 -212 0 -5 33 18 73 51 79 64 96 73 73 37 -9
-12 -24 -52 -35 -88 -46 -148 -141 -216 -222 -158 -52 37 -99 108 -99 149 0
65 58 189 82 174 11 -7 10 -67 -2 -101 -10 -27 -9 -27 5 -8 9 11 18 30 22 43
14 59 -32 142 -79 142 -23 -1 -23 -1 4 -21 l27 -20 -22 -34 c-25 -38 -40 -38
-110 -3 -49 24 -77 71 -77 127 0 38 5 49 45 89 45 44 46 45 93 37 26 -5 63 -9
82 -11z m2179 1 c39 -20 55 -64 48 -132 -6 -62 -29 -93 -87 -123 -45 -22 -100
-33 -100 -19 0 11 36 47 66 66 16 10 14 11 -11 2 -40 -14 -56 -28 -71 -66 -10
-24 -11 -39 -3 -62 14 -40 30 -40 23 -1 -5 22 -3 30 7 30 8 0 24 3 35 6 18 5
25 -2 43 -38 25 -53 27 -88 5 -129 -34 -67 -170 -79 -189 -18 -4 10 -22 33
-41 51 -33 30 -35 37 -31 79 2 27 14 61 30 84 32 47 28 59 -6 19 l-24 -28 -41
35 c-46 39 -190 124 -198 116 -3 -2 24 -21 60 -41 72 -41 166 -112 166 -126 0
-5 -23 8 -52 30 -29 21 -94 63 -146 91 -66 36 -90 55 -83 62 6 6 11 31 11 55
0 38 2 43 19 37 10 -3 47 -12 82 -19 35 -8 106 -26 158 -40 52 -14 121 -28
155 -31 75 -6 65 0 -33 20 -84 17 -115 35 -60 35 18 0 50 10 69 21 78 48 149
60 199 34z"></path>
<path d="M1669 1472 c-19 -16 -57 -51 -86 -80 -60 -59 -118 -91 -182 -101
l-46 -7 30 -16 c23 -12 33 -28 43 -64 7 -27 24 -63 38 -81 13 -17 24 -35 24
-39 0 -14 -32 21 -50 55 -11 20 -19 30 -20 22 0 -8 12 -34 26 -58 15 -26 23
-51 19 -62 -5 -15 11 -10 82 26 78 39 98 45 173 50 63 5 79 8 64 15 -19 9 -21
17 -18 86 l3 77 -9 -64 c-5 -35 -14 -69 -21 -75 -9 -8 -10 -6 -4 9 4 11 10 50
12 86 4 52 1 75 -14 110 -23 51 -18 76 21 106 30 24 25 33 -19 33 -21 0 -45
-10 -66 -28z"></path>
<path d="M1280 1119 c-22 -41 -60 -177 -60 -211 0 -28 16 -22 39 16 31 49 46
51 93 8 l41 -37 -7 51 c-14 112 -51 214 -76 214 -5 0 -19 -18 -30 -41z"></path>
<path d="M1270 725 c5 -16 14 -48 19 -70 l9 -40 1 42 c1 23 6 54 11 70 9 26 9
27 -5 9 -15 -20 -15 -20 -30 0 -13 18 -14 17 -5 -11z"></path>
<path d="M981 814 c0 -11 3 -14 6 -6 3 7 2 16 -1 19 -3 4 -6 -2 -5 -13z"></path>
<path d="M1042 460 c15 -19 40 -63 56 -98 17 -35 40 -72 53 -82 30 -27 37 -25
12 3 -11 12 -39 57 -63 100 -24 42 -53 85 -64 95 -14 12 -12 6 6 -18z"></path>
<path d="M1361 534 c0 -11 3 -14 6 -6 3 7 2 16 -1 19 -3 4 -6 -2 -5 -13z"></path>
</g>
</svg><style>@media (prefers-color-scheme: light) { :root { filter: none; } }
</style></svg>